# xmcd
#
# Track frame offsets:
#	150
#	18457
#	40689
#	58491
#	77721
#	95460
#	112952
#	132907
#	148105
#	167897
#	186371
#	203428
#	221986
#
# Disc length: 3240 seconds
#
# Revision: 0
# Processed by: cddbd v1.5.2PL0 Copyright (c) Steve Scherf et al.
# Submitted via: EasyCDDAExtractor 4.6.9.1
#
DISCID=be0ca60d
DTITLE=Taylor Swift - Fearless
DYEAR=2008
DGENRE=Country
TTITLE0=Fearless
TTITLE1=Fifteen
TTITLE2=Love Story
TTITLE3=Hey Stephen
TTITLE4=White Horse
TTITLE5=You Belong With Me
TTITLE6=Breathe
TTITLE7=Tell Me Why
TTITLE8=You're Not Sorry
TTITLE9=The Way I Loved You
TTITLE10=Forever and Always
TTITLE11=The Best Day
TTITLE12=Change
EXTD=
EXTT0=
EXTT1=
EXTT2=
EXTT3=
EXTT4=
EXTT5=
EXTT6=
EXTT7=
EXTT8=
EXTT9=
EXTT10=
EXTT11=
EXTT12=
PLAYORDER=
